HIERARCHY
ROOT Hips
{
	OFFSET	0.00	0.00	0.00
	CHANNELS 6 Xposition Yposition Zposition Zrotation Xrotation Yrotation
	JOINT LeftUpLeg
	{
		OFFSET	 0.126116	-0.065224	 0.014019
		CHANNELS 3 Zrotation Xrotation Yrotation
		JOINT LeftLeg
		{
			OFFSET	 0.000000	 0.569914	 0.000000
			CHANNELS 3 Zrotation Xrotation Yrotation
			JOINT LeftFoot
			{
				OFFSET	 0.000000	 0.544423	 0.000000
				CHANNELS 3 Zrotation Xrotation Yrotation
				JOINT LeftToeBase
				{
					OFFSET	 0.000000	 0.207117	 0.000000
					CHANNELS 3 Zrotation Xrotation Yrotation
					End Site
					{
						OFFSET	 0.000000	 0.207117	 0.000000
					}
				}
			}
		}
	}
	JOINT RightUpLeg
	{
		OFFSET	-0.124023	-0.065224	 0.008373
		CHANNELS 3 Zrotation Xrotation Yrotation
		JOINT RightLeg
		{
			OFFSET	 0.000000	 0.570047	 0.000000
			CHANNELS 3 Zrotation Xrotation Yrotation
			JOINT RightFoot
			{
				OFFSET	 0.000000	 0.544354	 0.000000
				CHANNELS 3 Zrotation Xrotation Yrotation
				JOINT RightToeBase
				{
					OFFSET	 0.000000	 0.207540	 0.000000
					CHANNELS 3 Zrotation Xrotation Yrotation
					End Site
					{
						OFFSET	 0.000000	 0.207540	 0.000000
					}
				}
			}
		}
	}
	JOINT Spine
	{
		OFFSET	 0.000184	 0.117403	 0.007763
		CHANNELS 3 Zrotation Xrotation Yrotation
		JOINT Spine1
		{
			OFFSET	 0.000000	 0.137269	 0.000000
			CHANNELS 3 Zrotation Xrotation Yrotation
			JOINT Spine2
			{
				OFFSET	 0.000000	 0.156879	 0.000000
				CHANNELS 3 Zrotation Xrotation Yrotation
				JOINT LeftShoulder
				{
					OFFSET	 0.080501	 0.160143	 0.002496
					CHANNELS 3 Zrotation Xrotation Yrotation
					JOINT LeftArm
					{
						OFFSET	 0.000000	 0.164363	 0.000000
						CHANNELS 3 Zrotation Xrotation Yrotation
						JOINT LeftForeArm
						{
							OFFSET	 0.000000	 0.364576	 0.000000
							CHANNELS 3 Zrotation Xrotation Yrotation
							JOINT LeftHand
							{
								OFFSET	 0.000000	 0.360812	 0.000000
								CHANNELS 3 Zrotation Xrotation Yrotation
								JOINT LeftHandIndex1
								{
									OFFSET	 0.000000	 0.086006	 0.000000
									CHANNELS 3 Zrotation Xrotation Yrotation
									JOINT LeftHandIndex2
									{
										OFFSET	 0.000000	 0.047237	 0.000000
										CHANNELS 3 Zrotation Xrotation Yrotation
										JOINT LeftHandIndex3
										{
											OFFSET	-0.004284	 0.038165	 0.000551
											CHANNELS 3 Zrotation Xrotation Yrotation
											End Site
											{
												OFFSET	-0.004284	 0.038165	 0.000551
											}
										}
									}
								}
							}
						}
					}
				}
				JOINT Neck
				{
					OFFSET	 0.000000	 0.176489	 0.000000
					CHANNELS 3 Zrotation Xrotation Yrotation
					JOINT Head
					{
						OFFSET	 0.000000	 0.077941	 0.001747
						CHANNELS 3 Zrotation Xrotation Yrotation
						End Site
						{
							OFFSET	 0.000000	 0.077941	 0.001747
						}
					}
				}
				JOINT RightShoulder
				{
					OFFSET	-0.080363	 0.159706	-0.000306
					CHANNELS 3 Zrotation Xrotation Yrotation
					JOINT RightArm
					{
						OFFSET	 0.000000	 0.164196	 0.000000
						CHANNELS 3 Zrotation Xrotation Yrotation
						JOINT RightForeArm
						{
							OFFSET	 0.000000	 0.365611	 0.000000
							CHANNELS 3 Zrotation Xrotation Yrotation
							JOINT RightHand
							{
								OFFSET	 0.000000	 0.360648	 0.000000
								CHANNELS 3 Zrotation Xrotation Yrotation
								JOINT RightHandIndex1
								{
									OFFSET	 0.000000	 0.069977	 0.000000
									CHANNELS 3 Zrotation Xrotation Yrotation
									JOINT RightHandIndex2
									{
										OFFSET	 0.000000	 0.052305	 0.000000
										CHANNELS 3 Zrotation Xrotation Yrotation
										JOINT RightHandIndex3
										{
											OFFSET	 0.009002	 0.042196	 0.000782
											CHANNELS 3 Zrotation Xrotation Yrotation
											End Site
											{
												OFFSET	 0.009002	 0.042196	 0.000782
											}
										}
									}
								}
							}
						}
					}
				}
			}
		}
	}
}
MOTION
Frames:    4
Frame Time: 0.03333334
-0.009879	 1.233048	 0.010796	 3.112868	 0.431869	 172.044000	-158.922900	 13.569050	-28.059230	 6.146701	-21.988320	 3.209698	-12.536850	 63.990210	 4.811627	 1.161892	 26.687440	-2.659605	 174.849200	 9.831286	 19.395790	-2.423387	-29.183660	 7.801493	 13.222640	 76.927590	-9.671573	-1.288865	 28.370800	 2.710464	 2.118509	 6.050487	-8.342183	 7.036499	 6.180559	-4.491156	-5.867590	-5.449445	 15.084010	-113.139200	 6.491800	 92.940930	 42.957230	 36.168580	-14.604480	 4.731194	-0.241114	-0.268660	-7.368207	-1.016496	-18.887340	 0.604892	 8.516678	-0.355515	-5.949068	 13.608310	 1.521247	 4.988177	-3.464906	-0.333552	 3.184233	-6.826856	 0.880210	-1.244541	-6.009873	 7.268758	 123.421500	 10.379710	-96.379510	-8.713817	 46.354180	-1.242907	-5.099454	-0.197992	 0.244498	-13.514590	-5.611569	-56.249450	-2.323550	 4.894722	 0.895628	 12.539840	 22.923080	-5.165376	-8.500836	 13.121820	-0.526737
-0.009978	 1.232947	 0.010952	 3.093210	 0.379408	 171.803100	-158.616500	 13.508330	-29.705310	 6.193075	-22.058440	 3.178815	-12.195260	 63.837340	 4.829440	 1.161676	 26.684510	-2.659519	 174.519100	 9.875082	 20.626550	-2.427593	-29.255510	 7.698831	 12.443270	 76.881200	-9.005483	-1.288658	 28.368080	 2.710376	 2.274524	 5.886571	-8.835961	 6.851650	 6.543781	-4.445413	-5.686359	-6.042383	 15.060820	-113.044900	 6.505038	 92.950840	 42.485030	 36.301570	-14.133000	 4.841175	-0.240975	-0.594458	-6.680604	-1.492087	-19.273440	 0.678072	 8.289597	-0.354936	-5.948137	 13.659330	 1.526717	 4.991868	-3.383827	-0.331598	 3.181558	-6.828846	 0.895613	-1.239888	-6.124378	 7.368780	 123.358300	 10.390010	-96.372890	-8.168852	 46.277740	-1.561861	-5.209546	-0.197536	 0.570478	-14.582910	-5.481929	-55.262950	-2.350012	 4.977604	 0.894589	 12.555780	 23.141720	-5.218256	-8.502396	 13.300790	-0.538036
-0.010080	 1.232858	 0.011166	 3.058648	 0.308154	 171.502100	-158.310000	 13.433460	-31.354400	 6.214022	-22.125570	 3.059839	-11.912820	 63.697170	 4.917058	 1.161402	 26.680810	-2.659411	 174.186000	 9.953435	 21.810670	-2.432359	-29.340280	 7.569181	 11.497610	 76.831730	-8.179562	-1.288397	 28.364640	 2.710266	 2.453479	 5.705877	-9.457772	 6.643034	 6.895301	-4.384569	-5.481828	-6.636911	 15.017230	-112.925700	 6.521848	 92.963370	 42.022720	 36.469550	-13.640910	 4.982429	-0.240917	-1.006669	-5.950280	-2.016114	-19.724880	 0.770632	 8.002204	-0.353783	-5.946967	 13.723870	 1.533639	 4.996533	-3.281240	-0.329133	 3.178174	-6.831366	 0.915102	-1.235409	-6.248214	 7.490654	 123.278300	 10.403010	-96.364510	-7.639414	 46.209840	-1.850770	-5.350871	-0.197723	 0.982852	-15.711050	-5.392198	-54.021710	-2.383496	 5.082472	 0.893329	 12.576310	 23.418410	-5.285397	-8.504317	 13.527260	-0.552340
-0.010196	 1.232762	 0.011440	 3.014008	 0.220058	 171.131800	-157.992500	 13.343950	-33.086010	 6.236842	-22.198580	 2.913294	-11.685630	 63.578610	 5.072036	 1.161068	 26.676290	-2.659278	 173.850400	 10.066400	 22.964810	-2.437966	-29.440980	 7.410754	 10.389410	 76.776100	-7.204328	-1.288077	 28.360430	 2.710130	 2.661604	 5.506474	-10.219210	 6.422215	 7.249817	-4.312350	-5.257298	-7.247261	 14.951520	-112.779900	 6.542414	 92.978610	 41.569720	 36.679200	-13.126260	 5.155183	-0.240886	-1.510677	-5.169260	-2.599111	-20.259360	 0.883770	 7.650678	-0.351737	-5.945547	 13.802800	 1.542103	 5.002232	-3.155799	-0.326130	 3.174039	-6.834449	 0.938931	-1.230785	-6.383142	 7.635925	 123.180500	 10.418900	-96.354250	-7.126335	 46.142320	-2.107242	-5.525784	-0.197663	 1.486868	-16.908380	-5.343708	-52.520820	-2.424444	 5.210707	 0.891872	 12.601960	 23.756800	-5.367859	-8.506591	 13.804240	-0.569841
